GIL11_free1_RRA_states
nRows=4
nColumns=47

# SIMM Motion File Header:
name GIL11_free1_RRA_states
datacolumns 47
datarows 4
otherdata 1
range 0.58733000000000035000 0.58883000000000030000
endheader
time	pelvis_tx	pelvis_ty	pelvis_tz	pelvis_tilt	pelvis_list	pelvis_rotation	hip_flexion_r	hip_adduction_r	hip_rotation_r	knee_angle_r	ankle_angle_r	subtalar_angle_r	mtp_angle_r	hip_flexion_l	hip_adduction_l	hip_rotation_l	knee_angle_l	ankle_angle_l	subtalar_angle_l	mtp_angle_l	lumbar_extension	lumbar_bending	lumbar_rotation	pelvis_tx_u	pelvis_ty_u	pelvis_tz_u	pelvis_tilt_u	pelvis_list_u	pelvis_rotation_u	hip_flexion_r_u	hip_adduction_r_u	hip_rotation_r_u	knee_angle_r_u	ankle_angle_r_u	subtalar_angle_r_u	mtp_angle_r_u	hip_flexion_l_u	hip_adduction_l_u	hip_rotation_l_u	knee_angle_l_u	ankle_angle_l_u	subtalar_angle_l_u	mtp_angle_l_u	lumbar_extension_u	lumbar_bending_u	lumbar_rotation_u
      0.58733000000000035000	      1.11470209921388190000	      0.85165002328162875000	     -0.33184426252564270000	     -4.61950677234074100000	     -2.26643981274960590000	     11.69863024365642300000	     29.42743035060921400000	     -2.26545019515817940000	      8.80013476706499810000	    -12.45494900741002600000	     -6.90401226456157780000	      0.00000000000001102881	     -0.00000000000001882311	     -7.18817886410243820000	     -3.32057377038454730000	     15.75014392612298200000	    -24.43059673532738400000	      7.45563839376992820000	     -0.00000000000019729183	      0.00000000000001999082	     -4.89878941333328480000	      2.11120646068125060000	     -5.58127633435049210000	      1.38096946017577600000	      0.08189515054542380300	      0.17694713307512178000	     16.08826908650556900000	    -27.22768332336485000000	     -6.16154841400050920000	     -8.03725518829250870000	     55.21749416779943700000	    -32.15938990486864700000	   -161.98135952851555000000	     -6.58492724868572930000	      0.00000000000030945936	     -0.00000000000015622729	     34.73199104572112400000	    -83.09802510665827000000	     14.15072650113463100000	   -200.26440603778011000000	   -317.04391244702691000000	     -0.00000000000058649110	      0.00000000000167683925	     -4.15929850608625350000	     22.08174792091696000000	     20.80114547655937700000
      0.58783000000000030000	      1.11539265616469190000	      0.85169143426604144000	     -0.33175561129273695000	     -4.61142040411469000000	     -2.28003430602613260000	     11.69548311535432600000	     29.42332337694166700000	     -2.23784895585335870000	      8.78381618027879440000	    -12.53595274506174200000	     -6.90690700328913910000	      0.00000000000001118539	     -0.00000000000001890725	     -7.17066713821385630000	     -3.36212200426282990000	     15.75711239811667500000	    -24.53086512955854900000	      7.29612537493360060000	     -0.00000000000019758461	      0.00000000000002081429	     -4.90092578222564160000	      2.12222418198511020000	     -5.57083798454207630000	      1.38125565332579560000	      0.08374604659126519400	      0.17765492186214463000	     16.25720915206339300000	    -27.14974248198479100000	     -6.42678567686412270000	     -8.39145761528376080000	     55.18630893732308400000	    -33.11585759226456800000	   -162.03156933595616000000	     -4.99283544641378630000	      0.00000000000035511308	     -0.00000000000018678314	     35.31541032532231800000	    -83.09378619990204100000	     13.72167452189885000000	   -200.80928774592161000000	   -321.00572995371709000000	     -0.00000000000058087136	      0.00000000000158655668	     -4.38641661340392020000	     21.98891984141796000000	     20.95198289347166600000
      0.58833000000000035000	      1.11608335217795300000	      0.85173376660877376000	     -0.33166661042615320000	     -4.60324955544460490000	     -2.29358902070128680000	     11.69220361089648600000	     29.41903810250237700000	     -2.21026500062148170000	      8.76701801920294700000	    -12.61697863280455900000	     -6.90900342510273720000	      0.00000000000001137004	     -0.00000000000001899721	     -7.15286298221345880000	     -3.40366646121957080000	     15.76386410235125600000	    -24.63140602276551800000	      7.13463374998815510000	     -0.00000000000019786931	      0.00000000000002158617	     -4.90317607166336880000	      2.13319517428456120000	     -5.56032459494454920000	      1.38152571065644200000	      0.08558062388995887900	      0.17834577590197867000	     16.42619552795374800000	    -27.06859470399023200000	     -6.69110531824740300000	     -8.75040233406673810000	     55.14843782345542400000	    -34.07766526767933600000	   -162.07011703432809000000	     -3.39070606063555680000	      0.00000000000037337555	     -0.00000000000019286651	     35.90165795146603500000	    -83.08297502561323700000	     13.28363409322921200000	   -201.35416607225338000000	   -324.96102108004879000000	     -0.00000000000056699141	      0.00000000000154603080	     -4.61498479066780300000	     21.89485460665324700000	     21.10135942658367000000
      0.58883000000000030000	      1.11677417915437900000	      0.85177701215963397000	     -0.33157726836538670000	     -4.59499421236500360000	     -2.30710236870085210000	     11.68879216504862800000	     29.41457219604682300000	     -2.18270162724490290000	      8.74973764132484360000	    -12.69802092362841100000	     -6.91029607846134120000	      0.00000000000001156164	     -0.00000000000001909785	     -7.13476500265295410000	     -3.44520387805445470000	     15.77039454287236700000	    -24.73221929773320900000	      6.97116560087482370000	     -0.00000000000019815308	      0.00000000000002236583	     -4.90554099324908680000	      2.14411883262402410000	     -5.54973686480138100000	      1.38177944194254950000	      0.08739881722732405200	      0.17901953833360698000	     16.59515907897620200000	    -26.98425502901023500000	     -6.95449494216828870000	     -9.11401754362781880000	     55.10391213429402800000	    -35.04471330648505800000	   -162.09703574072333000000	     -1.77880290681702440000	      0.00000000000037982074	     -0.00000000000022386611	     36.49077012915413600000	    -83.06555639985825200000	     12.83665885071638600000	   -201.89905706773922000000	   -328.90881798673070000000	     -0.00000000000057995317	      0.00000000000160247517	     -4.84491010694122880000	     21.79956587736320400000	     21.24929805667208500000
